<?xml version="1.0" encoding="UTF-8"?><svg id="Layer_2" xmlns="http://www.w3.org/2000/svg" viewBox="0 0 250.02 41.2"><defs><style>.cls-1{fill:#fff;}</style></defs><g id="Layer_1-2"><path class="cls-1" d="M12.35,24.23h6.97V15.46c0-2.7,.69-4.76,2.04-6.12,1.65-1.65,4.2-2.19,6.34-2.31,.28-.02,1.04-.03,1.04-.03V0s-1.04,.01-1.04,.01c-4.78,.18-8.56,1.65-11.27,4.37-2.67,2.69-4.08,6.52-4.08,11.07,0,0,0,5.42,0,7.64,0,.57,0,1.14,0,1.14Zm5.67,8.47c-2.32,1.35-4.44,1.78-6.29,1.28-2.25-.61-3.98-2.56-5.16-4.37-.15-.23-.55-.89-.55-.89L0,32.24l.53,.89c2.55,4.07,5.7,6.63,9.4,7.63,3.65,.98,7.65,.3,11.58-1.98,0,0,7.56-4.39,7.56-4.39l-3.48-6.07-7.56,4.39Zm18.9-13.53s-7.56-4.39-7.56-4.39l-3.48,6.07,7.56,4.39c2.32,1.35,3.75,2.97,4.25,4.83,.6,2.26-.21,4.75-1.18,6.68-.12,.25-.48,.92-.48,.92l6.02,3.49,.5-.91c2.23-4.25,2.86-8.28,1.87-12-.98-3.67-3.57-6.81-7.5-9.09Zm87.42-3.79c-6.87,0-12.43,5.57-12.43,12.43s5.57,12.43,12.43,12.43c2.25,0,4.2-.94,5.52-2.1v1.48h6.92v-11.81c0-6.87-5.57-12.43-12.43-12.43Zm0,17.95c-3.04,0-5.52-2.48-5.52-5.52s2.48-5.52,5.52-5.52,5.52,2.47,5.52,5.52-2.48,5.52-5.52,5.52ZM99.57,.94h-31.62V7.82h12.13v31.81h7.4V7.82h12.1V.94Zm88.56,38.69h6.92V15.99h-6.92v23.64ZM191.59,.94c-2.28,0-4.36,1.87-4.36,4.36s2.07,4.35,4.36,4.35,4.36-1.87,4.36-4.35-2.01-4.36-4.36-4.36Zm46.82,14.43c-6.41,0-11.61,5.2-11.61,11.61v12.66h6.91v-12.66c0-2.59,2.11-4.69,4.7-4.69s4.7,2.11,4.7,4.69v12.66h6.92v-12.66c0-6.41-5.2-11.61-11.61-11.61Zm-27.49,.02c-6.87,0-12.43,5.57-12.43,12.43s5.57,12.43,12.43,12.43,12.43-5.57,12.43-12.43-5.57-12.43-12.43-12.43Zm0,17.95c-3.04,0-5.52-2.48-5.52-5.52s2.48-5.52,5.52-5.52,5.52,2.47,5.52,5.52-2.48,5.52-5.52,5.52ZM73.87,15.4c-4.74,.18-8.5,1.64-11.18,4.34-2.65,2.67-4.05,6.47-4.05,10.99,0,0,0,8.91,0,8.91h6.91v-8.91c0-2.68,.68-4.72,2.03-6.07,1.63-1.64,4.16-2.17,6.29-2.29,.27-.02,1.03-.03,1.03-.03v-6.95s-1.03,.01-1.03,.01Zm34,0c-4.74,.18-8.5,1.64-11.18,4.34-2.65,2.67-4.05,6.47-4.05,10.99,0,0,0,8.91,0,8.91h6.91v-8.91c0-2.68,.68-4.72,2.03-6.07,1.63-1.64,4.16-2.17,6.29-2.29,.27-.02,1.03-.03,1.03-.03v-6.95s-1.03,.01-1.03,.01Zm68.22,17.94c-.93,0-1.69-.76-1.69-1.68h0v-9.93h6.01v-5.74h-6.01V.94h-6.91V15.99h-3.03v5.74h3.03v9.93c0,4.75,3.85,8.6,8.6,8.6s8.6-3.85,8.6-8.6h-6.92c0,.93-.76,1.68-1.69,1.68Zm-23.44,0c-3.04,0-5.52-2.48-5.52-5.52s2.48-5.52,5.52-5.52c1.32,0,2.53,.47,3.48,1.24l4.9-4.9c-2.21-2.02-5.15-3.25-8.38-3.25-6.87,0-12.43,5.57-12.43,12.43s5.57,12.43,12.43,12.43c3.41,0,6.5-1.38,8.75-3.6l-4.89-4.89c-1,.98-2.36,1.58-3.86,1.58Z"/></g></svg>